<svg id="visual" viewBox="0 0 1980 1080" width="1980" height="1080" xmlns="http://www.w3.org/2000/svg" xmlns:xlink="http://www.w3.org/1999/xlink" version="1.1"><rect x="0" y="0" width="1980" height="1080" fill="#001220"></rect><defs><linearGradient id="grad1_0" x1="45.5%" y1="0%" x2="100%" y2="100%"><stop offset="13.333333333333334%" stop-color="#001220" stop-opacity="1"></stop><stop offset="86.66666666666667%" stop-color="#001220" stop-opacity="1"></stop></linearGradient></defs><defs><linearGradient id="grad2_0" x1="0%" y1="0%" x2="54.5%" y2="100%"><stop offset="13.333333333333334%" stop-color="#001220" stop-opacity="1"></stop><stop offset="86.66666666666667%" stop-color="#001220" stop-opacity="1"></stop></linearGradient></defs><g transform="translate(1980, 0)"><path d="M0 648C-68.6 591.8 -137.3 535.7 -208.2 502.6C-279.1 469.5 -352.2 459.5 -422.8 422.8C-493.5 386.2 -561.6 322.9 -598.7 248C-635.8 173.1 -641.9 86.5 -648 0L0 0Z" fill="#FF0066"></path></g><g transform="translate(0, 1080)"><path d="M0 -648C87.7 -643.1 175.4 -638.2 248 -598.7C320.5 -559.2 377.9 -485.1 414.4 -414.4C450.8 -343.6 466.2 -276.3 501.7 -207.8C537.1 -139.3 592.6 -69.6 648 0L0 0Z" fill="#FF0066"></path></g></svg>