<?xml version="1.0" standalone="no"?>
<!DOCTYPE svg PUBLIC "-//W3C//DTD SVG 20010904//EN"
 "http://www.w3.org/TR/2001/REC-SVG-20010904/DTD/svg10.dtd">
<svg version="1.0" xmlns="http://www.w3.org/2000/svg"
 width="540.000000pt" height="540.000000pt" viewBox="0 0 540.000000 540.000000"
 preserveAspectRatio="xMidYMid meet">

<g transform="translate(0.000000,540.000000) scale(0.100000,-0.100000)"
fill="#000000" stroke="none">
<path d="M882 4749 c-122 -24 -244 -120 -303 -237 -33 -64 -34 -71 -34 -182 0
-111 1 -118 34 -184 90 -184 297 -283 486 -232 206 55 334 229 323 441 -13
255 -256 444 -506 394z m174 -228 c68 -31 124 -117 124 -192 0 -92 -78 -189
-165 -207 -101 -22 -195 22 -240 111 -40 81 -30 168 28 234 61 70 168 93 253
54z"/>
<path d="M4310 4749 c-71 -14 -162 -64 -219 -120 -127 -128 -160 -319 -83
-482 130 -274 484 -331 693 -110 232 245 104 642 -229 712 -60 13 -98 13 -162
0z m168 -224 c65 -28 110 -85 127 -163 21 -97 -62 -219 -162 -241 -96 -20
-201 27 -238 106 -40 84 -29 175 28 240 60 68 163 92 245 58z"/>
<path d="M845 3777 c-119 -40 -216 -124 -268 -234 l-32 -68 0 -595 0 -595 32
-66 c38 -77 109 -153 179 -191 94 -51 145 -58 426 -58 l258 0 0 -24 c0 -13 -3
-38 -6 -55 l-6 -31 -394 0 c-236 0 -413 4 -442 10 -60 13 -118 60 -143 114
-18 39 -19 84 -19 829 0 876 3 834 -67 863 -45 19 -83 11 -119 -27 l-29 -30
-3 -772 c-2 -517 1 -793 8 -837 16 -100 60 -179 136 -249 l66 -60 -51 -459
c-37 -326 -49 -467 -42 -484 15 -40 58 -68 103 -68 49 0 94 40 102 91 3 19 27
221 52 449 25 228 47 416 48 417 2 2 174 2 383 1 l379 -3 -53 -350 c-29 -192
-53 -369 -53 -392 0 -57 34 -95 123 -137 115 -54 182 -67 372 -73 146 -4 184
-2 269 16 55 11 121 31 148 44 l48 24 48 -24 c27 -13 93 -33 148 -44 85 -18
124 -20 269 -16 179 5 292 26 360 66 31 18 33 18 67 0 82 -42 178 -61 340 -66
175 -6 279 5 387 42 130 44 201 99 201 156 0 23 -85 610 -105 727 l-6 32 383
0 384 0 38 -352 c62 -565 59 -548 95 -580 56 -50 138 -32 166 36 11 27 6 94
-38 494 -51 458 -52 464 -32 474 43 23 118 113 148 176 l32 67 3 824 c3 913 7
855 -62 888 -42 20 -79 11 -117 -27 l-29 -28 0 -790 c0 -563 -3 -799 -11 -823
-18 -51 -55 -97 -102 -122 -41 -22 -49 -22 -464 -25 l-422 -3 -5 23 c-3 13 -7
38 -10 56 l-5 32 253 0 c139 0 278 5 307 10 132 25 251 119 312 247 l32 68 3
564 c3 541 2 568 -17 631 -74 243 -359 371 -583 261 -118 -58 -202 -167 -238
-306 -18 -71 -20 -111 -20 -457 l0 -379 -72 3 -73 3 -31 205 c-41 274 -41 273
-70 301 l-26 24 -1000 3 c-1087 3 -1026 5 -1063 -51 -8 -12 -28 -113 -45 -227
-43 -295 -29 -261 -113 -258 l-72 3 -5 415 c-5 397 -6 417 -27 468 -51 125
-123 204 -232 255 -56 27 -80 32 -156 34 -55 2 -105 -2 -130 -10z m180 -208
c23 -7 57 -28 81 -53 72 -72 74 -84 74 -598 l0 -448 29 -32 29 -33 137 -3 136
-4 -5 -26 c-3 -15 -10 -62 -17 -104 l-12 -78 -284 0 c-261 0 -287 2 -322 19
-50 26 -97 81 -110 128 -16 55 -15 1049 0 1094 37 111 150 169 264 138z m3480
-24 c28 -16 55 -43 72 -73 l28 -47 0 -540 c0 -534 0 -540 -22 -580 -24 -46
-55 -76 -100 -99 -27 -14 -74 -16 -317 -16 l-284 0 -6 28 c-8 40 -26 155 -26
170 0 9 30 12 119 12 134 0 162 7 188 47 17 25 18 66 23 498 l5 470 29 53 c46
82 104 114 194 107 33 -2 70 -13 97 -30z m-954 -612 c0 -5 67 -449 148 -988
90 -598 144 -984 139 -992 -21 -27 -151 -48 -303 -48 -145 0 -208 10 -297 44
l-28 11 0 204 c0 204 0 205 -25 234 -32 38 -72 48 -118 28 -61 -25 -67 -49
-67 -270 0 -222 8 -202 -95 -230 -138 -38 -398 -29 -507 17 l-38 16 0 301 c0
323 -2 340 -52 374 -29 21 -87 20 -117 0 -47 -33 -51 -62 -51 -378 0 -336 11
-302 -100 -332 -127 -35 -445 -20 -518 25 -10 6 20 228 134 987 80 538 147
985 149 992 4 9 187 12 875 12 478 0 870 -3 871 -7z"/>
</g>
</svg>
